# xmcd
#
# Track frame offsets: 
#        150
#        15867
#        27239
#        44601
#        59302
#        79074
#        86902
#        100958
#        111766
#        126127
#
# Disc length: 1823 seconds
#
# Revision: 0
# Processed by: cddbd v1.5.2PL0 Copyright (c) Steve Scherf et al.
# Submitted via: ExactAudioCopy v1.0b1
#
DISCID=79071d0a
DTITLE=John Sebastian  - Tarzana Kid  
DYEAR=1900
DGENRE=
TTITLE0=Sitting in Limbo
TTITLE1=Friends Again
TTITLE2=Dixie Chicken
TTITLE3=Stories We Could Tell
TTITLE4=Face of Appalachia
TTITLE5=Wildwood Flower
TTITLE6=Wild About My Lovin'
TTITLE7=Singing the Blues
TTITLE8=Sportin' Life
TTITLE9=Harpoon
EXTD=
EXTT0=
EXTT1=
EXTT2=
EXTT3=
EXTT4=
EXTT5=
EXTT6=
EXTT7=
EXTT8=
EXTT9=
PLAYORDER=
